<?xml version="1.0" encoding="utf-8"?>
<!-- Generator: Adobe Illustrator 28.1.0, SVG Export Plug-In . SVG Version: 6.00 Build 0)  -->
<svg version="1.1" id="Layer_1" xmlns="http://www.w3.org/2000/svg" xmlns:xlink="http://www.w3.org/1999/xlink" x="0px" y="0px"
	 viewBox="0 0 512 512" style="enable-background:new 0 0 512 512;" xml:space="preserve">
<g transform="translate(0.000000,512.000000) scale(0.100000,-0.100000)">
	<path d="M640,4760v-120h800h800v120l0,0c0,66.3-53.7,120-120,120h-680H760C693.7,4880,640,4826.3,640,4760L640,4760z"/>
	<path d="M320,2480V400H185c-131,0-137-1-160-25c-33-32-33-78,0-110l24-25h2511h2511l24,25c33,32,33,78,0,110l-24,25h-256h-255v164
		v164l38,7c112,20,262,135,311,238c52,109,62,198,35,338c-24,128-60,233-125,364c-213,432-465,432-678,0c-65-131-101-236-125-364
		c-27-141-18-230,35-337c53-106,198-218,312-239l37-7V564V400h-40h-40v89v89l-37,13c-279,89-459,349-440,633c6,76,30,202,53,279
		c5,15-5,17-105,17h-111v240v240h160h160v-117v-117l35,58c75,125,182,243,253,280l32,17v579v380c0,110.5-89.5,200-200,200h-600h-600
		c-110.5,0-200-89.5-200-200V1840V400h-80h-80v2080v1880c0,110.5-89.5,200-200,200h-920H520c-110.5,0-200-89.5-200-200V2480z
		 M960,3840v-240H800H640v240v240h160h160V3840z M1600,3840v-240h-160h-160v240v240h160h160V3840z M2240,3840v-240h-160h-160v240
		v240h160h160V3840z M960,3040v-240H800H640v240v240h160h160V3040z M1600,3040v-240h-160h-160v240v240h160h160V3040z M2240,3040
		v-240h-160h-160v240v240h160h160V3040z M3360,2560v-240h-160h-160v240v240h160h160V2560z M4000,2560v-240h-160h-160v240v240h160
		h160V2560z M960,2240v-240H800H640v240v240h160h160V2240z M1600,2240v-240h-160h-160v240v240h160h160V2240z M2240,2240v-240h-160
		h-160v240v240h160h160V2240z M3360,1760v-240h-160h-160v240v240h160h160V1760z M960,1440v-240H800H640v240v240h160h160V1440z
		 M1600,1440v-240h-160h-160v240v240h160h160V1440z M2240,1440v-240h-160h-160v240v240h160h160V1440z"/>
</g>
</svg>
