<?xml version="1.0" encoding="utf-8"?>
<!-- Generator: Adobe Illustrator 28.1.0, SVG Export Plug-In . SVG Version: 6.00 Build 0)  -->
<svg version="1.1" id="Layer_1" xmlns="http://www.w3.org/2000/svg" xmlns:xlink="http://www.w3.org/1999/xlink" x="0px" y="0px"
	 viewBox="0 0 512 512" style="enable-background:new 0 0 512 512;" xml:space="preserve">
<g transform="translate(0.000000,512.000000) scale(0.100000,-0.100000)">
	<path d="M378,4339c-23-12-46-35-58-59c-19-38-20-55-18-333l3-293l300,196l300,197l3,96c3,118-15,165-78,197c-35,18-58,20-227,20
		C436,4359,411,4357,378,4339z"/>
	<path d="M1909,4352c-9-4-434-283-943-621c-810-537-930-620-947-652c-38-75-15-153,56-194c58-34,100-32,168,9l57,35v-935v-934h-90
		c-71,0-99-4-130-20c-45-23-80-80-80-130s35-107,80-130c39-20,56-20,1485-20h1445v313v312l-52,25c-70,32-167,130-201,202
		c-40,84-54,181-39,269c25,146,17,136,561,682c308,310,514,509,543,526l48,28l-908,605c-500,333-923,613-940,622
		C1990,4360,1938,4364,1909,4352z M2052,3449c130-28,257-127,311-242c83-178,49-376-88-512c-177-178-451-178-630,0
		c-178,176-178,454,0,630C1757,3437,1902,3481,2052,3449z M2330,2240c26-13,47-34,60-60c19-37,20-58,20-370s-1-333-20-370
		c-13-26-34-47-60-60c-38-19-58-20-671-20h-631l-40,22c-77,43-78,52-78,430c1,375,2,379,76,424l39,24h633
		C2273,2260,2292,2259,2330,2240z"/>
	<path d="M1888,3139c-43-22-78-81-78-129c0-50,35-107,80-130c21-11,53-20,70-20c76,0,150,74,150,150c0,50-35,107-80,130
		C1981,3165,1936,3165,1888,3139z"/>
	<path d="M1210,1810v-150h150h150v150v150h-150h-150V1810z"/>
	<path d="M1810,1810v-150h150h150v150v150h-150h-150V1810z"/>
	<path d="M3995,2844c-44-23-943-922-966-966c-24-48-24-89,1-138c23-45,80-80,130-80c37,0,85,23,123,58l27,26v-492V760h300h300v240
		c0,217,2,245,19,278c22,43,84,82,130,82c51,0,108-35,131-80c18-36,20-58,20-280V760h395c377,0,398,1,435,20c45,23,80,80,80,130
		s-35,107-80,130c-31,16-59,20-130,20h-90v342v342l28-26c15-14,41-33,59-42c123-62,261,79,195,200c-23,42-938,946-979,967
		C4083,2864,4034,2864,3995,2844z M4280,1940c45-23,80-80,80-130s-35-107-80-130c-35-18-59-20-220-20s-185,2-220,20
		c-102,52-104,196-4,256c37,23,47,24,222,24C4222,1960,4245,1958,4280,1940z"/>
</g>
</svg>
