<?xml version="1.0" encoding="utf-8"?>
<!-- Generator: Adobe Illustrator 28.1.0, SVG Export Plug-In . SVG Version: 6.00 Build 0)  -->
<svg version="1.1" id="Layer_1" xmlns="http://www.w3.org/2000/svg" xmlns:xlink="http://www.w3.org/1999/xlink" x="0px" y="0px"
	 viewBox="0 0 512 512" style="enable-background:new 0 0 512 512;" xml:space="preserve">
<g transform="translate(0.000000,512.000000) scale(0.100000,-0.100000)">
	<path d="M2012,4025l-544-705l-566-2l-368.7-2c-109.8-0.6-198.6-89.6-198.9-199.4L332,2354l-2-961l61-13c130-28,258-110,334-214
		c67-93,71-96,114-96c141,0,326-122,397-262c55-108,70-244,39-361c-8-32-15-60-15-62c0-3,133-5,295-5h295v970v970h710h710v-970V380
		h295c162,0,295,2,295,5c0,2-7,30-15,62c-55,211,28,427,209,545c67,43,168,78,227,78c43,0,47,3,114,96c76,104,204,186,334,214l61,13
		l-2,961l-2.4,762.7c-0.3,109.8-89.1,198.8-198.9,199.4l-368.7,2l-567,2l-541,703c-152.7,197.7-291.9,377.4-391.9,505.7
		c-79.9,102.6-234.9,102.8-315.1,0.4C2302.9,4401.4,2164.2,4222.5,2012,4025z M2712,3710c160-49,290-180,341-345
		c63-203-10-424-183-556c-186-141-433-141-618-2c-332,253-248,765,148,900C2487,3737,2621,3738,2712,3710z M1300,2160v-150h-150
		h-150v150v150h150h150V2160z M4130,2160v-150h-150h-150v150v150h150h150V2160z M1300,1560v-150h-150h-150v150v150h150h150V1560z
		 M4130,1560v-150h-150h-150v150v150h150h150V1560z"/>
	<path d="M2470,3415c-94-43-144-149-119-252c18-68,87-136,157-153c230-55,367,249,174,384c-36,25-54,31-110,33
		C2527,3429,2493,3425,2470,3415z"/>
	<path d="M0,4030v-410l662,2l662,3l294,380c161,209,303,392,313,408l20,27H976H200c-110.5,0-200-89.5-200-200V4030z"/>
	<path d="M3185,4418c8-13,149-196,313-408l297-385l663-3l662-2v410v210c0,110.5-89.5,200-200,200h-775h-975L3185,4418z"/>
	<path d="M2150,1200V380h410h410v820v820h-410h-410V1200z"/>
	<path d="M180,1077c-19-6-60-36-92-67C13,937,0,892,0,711c0-122,3-141,24-186c25-54,70-98,126-124c30-14,84-16,365-16
		c303,0,333,2,365,19c47,25,69,45,88,81c70,134-18,285-166,285c-27,0-87-13-137-30c-49-16-89-29-90-27c-1,1-10,43-19,92
		c-29,151-71,215-171,261C330,1092,243,1097,180,1077z"/>
	<path d="M4735,1066c-102-47-145-117-176-286c-7-36-13-66-14-67c-1-2-42,11-91,28c-112,38-182,37-241-4c-67-46-96-115-82-192
		c11-60,47-108,102-138c41-22,49-22,372-22c281,0,335,2,365,16c56,26,101,70,126,124c21,45,24,64,24,186c0,181-13,226-88,299
		c-36,35-72,60-98,68C4868,1097,4792,1093,4735,1066z"/>
</g>
</svg>
