<?xml version="1.0" encoding="utf-8"?>
<!-- Generator: Adobe Illustrator 28.1.0, SVG Export Plug-In . SVG Version: 6.00 Build 0)  -->
<svg version="1.1" id="Layer_1" xmlns="http://www.w3.org/2000/svg" xmlns:xlink="http://www.w3.org/1999/xlink" x="0px" y="0px"
	 viewBox="0 0 512 512" style="enable-background:new 0 0 512 512;" xml:space="preserve">
<g transform="translate(0.000000,512.000000) scale(0.100000,-0.100000)">
	<path d="M873.3,5054.3c-17.9-9-208.3-191.5-422.3-405.5C114,4309.5,62.4,4252.4,55.7,4216.5c-16.8-89.6,25.8-174.7,103-206.1
		c53.8-23.5,4746.7-23.5,4800.5,0c77.3,31.4,119.8,116.5,103,206.1c-6.7,35.8-57.1,91.8-389.8,425.6
		c-210.6,211.7-402.1,394.3-424.5,406.6c-40.3,21.3-84,21.3-1691.3,21.3C1192.6,5068.9,901.3,5066.6,873.3,5054.3z"/>
	<path d="M229.3,3048.3c0-422.3,2.2-767.2,5.6-767.2s210.6,136.6,461.5,304.6c272.2,181.4,476,309.1,505.1,319.2
		c66.1,19,129.9,19,202.7-3.4c41.4-12.3,206.1-115.4,562.3-352.8l502.9-334.9v800.8v800.8h-1120h-1120V3048.3z M1762.7,3603.9
		c60.5-43.7,79.5-99.7,79.5-236.3c0-136.6-19-192.6-79.5-236.3l-38.1-26.9h-422.3c-408.8,0-422.3,1.1-452.5,23.5
		c-67.2,49.3-77.3,73.9-80.6,208.3c-5.6,151.2,1.1,188.2,39.2,234.1c54.9,65,59.4,66.1,507.4,62.7l408.8-2.2L1762.7,3603.9z"/>
	<path d="M2648.6,3014.7v-801.9l504,338.3c509.6,340.5,558.9,368.5,655.2,368.5c103,0,151.2-26.9,617.1-337.1
		c248.6-165.8,454.7-301.3,458.1-301.3c3.4,0,5.6,345,5.6,767.2v767.2h-1120h-1120V3014.7z M4255.9,3610.6
		c71.7-40.3,95.2-98.6,95.2-243s-22.4-202.7-95.2-243c-44.8-25.8-47-25.8-455.9-23.5c-396.5,3.4-412.2,4.5-442.4,26.9
		c-70.6,52.6-81.8,84-81.8,236.3c0,146.7,7.8,177,58.2,224c13.4,13.4,38.1,29.1,53.8,35.8c16.8,6.7,189.3,11.2,425.6,11.2
		C4204.3,3636.4,4212.2,3635.2,4255.9,3610.6z"/>
	<path d="M1240.7,2730.2c-58.2-25.8-1148-767.2-1166-794.1c-12.3-19-19-51.5-19-93c0-69.4,19-105.3,77.3-149
		c30.2-23.5,37-23.5,1169.3-23.5h1139.1l38.1,26.9c20.2,14.6,47,47,58.2,72.8l20.2,44.8l12.3-32.5c6.7-19,23.5-45.9,37-60.5
		c54.9-59.4,12.3-57.1,1204-57.1h1106.6l49.3,25.8c61.6,30.2,94.1,82.9,94.1,152.3c-1.1,100.8,6.7,94.1-612.7,507.4L3875,2733.6
		h-62.7l-62.7,1.1l-561.1-374.1c-308-205-571.2-384.2-583.5-397.6c-12.3-12.3-28-38.1-34.7-57.1l-12.3-32.5l-21.3,45.9
		c-19,43.7-62.7,75-595.9,430.1c-514.1,343.9-580.2,384.2-625,387.5C1287.8,2738.1,1254.2,2735.8,1240.7,2730.2z"/>
	<path d="M1329.2,1489.2l-1099.9-3.4l2.2-659.7c3.4-647.4,3.4-660.8,26.9-691.1c49.3-67.2,75-77.3,206.1-80.6L586.6,50l3.4,481.6
		c3.4,467.1,4.5,482.7,26.9,513c56,76.2,60.5,77.3,328.2,77.3h244.2l39.2-30.2c76.2-58.2,76.2-54.9,76.2-573.5V52.2H1887h582.4
		v722.4c0,682.1-1.1,722.4-19,720.2C2439.2,1492.6,1935.1,1490.4,1329.2,1489.2z M1941.9,1095c60.5-43.7,79.5-99.7,79.5-236.3
		s-19-192.6-79.5-236.3c-35.8-25.8-47-26.9-191.5-26.9c-136.6,0-155.7,2.2-183.7,23.5c-67.2,49.3-77.3,73.9-80.6,208.3
		c-5.6,151.2,1.1,188.2,39.2,234.1c49.3,58.2,81.8,66.1,238.6,63.8C1891.5,1121.9,1907.1,1119.6,1941.9,1095z"/>
	<path d="M2648.6,775.8V52.2h224h224v474.9c0,472.7,0,473.8,25.8,510.7c56,82.9,60.5,84,330.4,84c238.6,0,244.2,0,281.1-26.9
		c20.2-14.6,47-47,58.2-72.8c19-42.6,21.3-81.8,21.3-507.4V52.2h468.2c462.6,0,467.1,1.1,510.7,25.8c24.6,13.4,54.9,42.6,67.2,63.8
		c22.4,38.1,23.5,56,26.9,692.2l3.4,651.9H3794.4c-602.6,0-1106.6,3.4-1120,6.7l-25.8,6.7V775.8z M4435.1,1101.7
		c71.7-40.3,95.2-98.6,95.2-243s-22.4-202.7-95.2-244.2c-41.4-23.5-56-24.6-187-22.4c-156.8,3.4-179.2,12.3-229.6,87.4
		c-23.5,33.6-25.8,50.4-25.8,175.8c0,146.7,7.8,177,58.2,224c41.4,39.2,73.9,47,210.6,47C4374.6,1127.5,4395.9,1124.1,4435.1,1101.7
		z"/>
</g>
</svg>
