<?xml version="1.0" encoding="utf-8"?>
<!-- Generator: Adobe Illustrator 28.1.0, SVG Export Plug-In . SVG Version: 6.00 Build 0)  -->
<svg version="1.1" id="Layer_1" xmlns="http://www.w3.org/2000/svg" xmlns:xlink="http://www.w3.org/1999/xlink" x="0px" y="0px"
	 viewBox="0 0 760.5 512" style="enable-background:new 0 0 760.5 512;" xml:space="preserve">
<g>
	<g>
		<path d="M623.7,3.9c-1,0.4-25.4,19.6-54.2,42.6l-52.4,42v108.7L517,306h17h17v-46.8c0-44.8,0.1-46.8,2-50c1.1-1.8,3.4-4.1,5.2-5.2
			c3.1-1.9,5.1-2,38.9-2c35.4,0,35.6,0,39,2.3c7,4.6,6.9,3.9,6.9,55.4V306h49h49V199.4c0-93.7-0.2-107-1.5-109.8c-1-2-7.1-7.8-16-15
			L709,62.9V38.4C709,12,708.8,11,703.5,6c-2.2-2.1-3.7-2.5-8.5-2.5s-6.3,0.4-8.5,2.5c-4.5,4.2-5,6-5.5,20.4l-0.5,13.8l-22-17.7
			c-12-9.7-23-18.1-24.3-18.6C631.5,2.8,626.3,2.8,623.7,3.9z M639.5,83.5c31.2,8.1,41.8,47.3,19.1,70.1c-24.1,24-65.1,10.7-70.9-23
			C582.7,101.1,610.3,76,639.5,83.5z M699.8,204c6.6,4,7.2,6.3,7.2,27.5c0,16.1-0.3,19.5-1.8,22.4c-5.1,10.1-18.3,10.6-24.2,0.9
			c-1.8-3-2-5.1-2-22.8s0.2-19.8,2-22.8c2.6-4.2,7.6-7.2,12-7.2C694.9,202,698,202.9,699.8,204z"/>
		<path d="M517,422v88h17h17v-60.8c0-58.8,0.1-60.8,2-64c1.1-1.8,3.4-4.1,5.2-5.2c3.1-1.9,5.1-2,38.9-2c35.4,0,35.6,0,39,2.3
			c7.1,4.7,6.9,2.3,6.9,69.4V510h51.3c46.8,0,51.5-0.2,54.6-1.8c10.1-5.1,10.6-18.3,0.9-24.2c-1.8-1.1-4.5-2-6-2H741v-74v-74H629
			H517V422z M699.8,380c6.6,4,7.2,6.3,7.2,27.5c0,16.1-0.3,19.5-1.8,22.4c-5.1,10.1-18.3,10.6-24.2,0.9c-1.8-3-2-5.1-2-22.8
			s0.2-19.8,2-22.8C685.2,378.4,693.4,376.1,699.8,380z"/>
	</g>
	<g>
		<path d="M123.4,4.7c-1.7,1-25.7,19.9-53.2,42.1c-38.6,31.1-50.3,41-51.1,43.4c-0.8,2.1-1.1,35.5-1.1,109.4V306h17h17v-46.8
			c0-44.8,0.1-46.8,2-50c1.1-1.8,3.4-4.1,5.2-5.2c3.1-1.9,5.1-2,38.9-2c35.4,0,35.6,0,39,2.3c7,4.6,6.9,3.9,6.9,55.4V306h49h49
			l-0.1-108.8V88.5l-16-12.8L210,62.9V38.4C210,12,209.8,11,204.5,6c-2.2-2.1-3.7-2.5-8.5-2.5s-6.3,0.4-8.5,2.5
			c-4.5,4.2-5,6-5.5,20.4l-0.5,13.8l-22-17.7c-12-9.7-23-18.1-24.3-18.6C131.5,2.5,126.8,2.8,123.4,4.7z M145,84.9
			c11.1,4.3,19.7,12.8,24.2,24.1c3.1,7.8,3.1,22.2,0,30c-8.2,20.4-30.4,31.4-50.8,25.2C78,151.9,78.5,94.9,119,83.5
			C126.2,81.5,137.8,82.1,145,84.9z M200.8,204c6.6,4,7.2,6.3,7.2,27.5c0,16.1-0.3,19.5-1.8,22.4c-5.1,10.1-18.3,10.6-24.2,0.9
			c-1.8-3-2-5.1-2-22.8s0.2-19.8,2-22.8c2.6-4.2,7.6-7.2,12-7.2C195.9,202,199,202.9,200.8,204z"/>
		<path d="M123.2,112c-9.4,5.7-9.4,18.3,0,24c4.1,2.5,8.2,2.5,12.7,0.2c10.1-5.1,10.6-18.3,0.9-24.2c-1.8-1.1-4.9-2-6.8-2
			C128.1,110,125,110.9,123.2,112z"/>
		<path d="M80,268v38h18h18v-38v-38H98H80V268z"/>
		<path d="M18,408v74h-2.7c-3.8,0-8.9,3.3-11.3,7.2c-3.9,6.4-1.6,14.6,5.2,18.8c3,1.8,5.1,2,23.1,2H52v-60.8c0-58.8,0.1-60.8,2-64
			c1.1-1.8,3.4-4.1,5.2-5.2c3.1-1.9,5.1-2,38.9-2c35.4,0,35.6,0,39,2.3c7.1,4.7,6.9,2.3,6.9,69.4V510h49h49v-88v-88H130H18V408z
			 M200.8,380c6.6,4,7.2,6.3,7.2,27.5c0,16.1-0.3,19.5-1.8,22.4c-5.1,10.1-18.3,10.6-24.2,0.9c-1.8-3-2-5.1-2-22.8s0.2-19.8,2-22.8
			C186.2,378.4,194.4,376.1,200.8,380z"/>
		<path d="M80,458v52h18h18v-52v-52H98H80V458z"/>
	</g>
	<g>
		<path d="M372.6,112c-9.4,5.7-9.4,18.3,0,24c4.1,2.5,8.2,2.5,12.7,0.2c10.1-5.1,10.6-18.3,0.9-24.2c-1.8-1.1-4.9-2-6.8-2
			S374.4,110.9,372.6,112z"/>
		<path d="M622.7,112c-9.4,5.7-9.4,18.3,0,24c4.1,2.5,8.2,2.5,12.7,0.2c10.1-5.1,10.6-18.3,0.9-24.2c-1.8-1.1-4.9-2-6.8-2
			C627.6,110,624.5,110.9,622.7,112z"/>
		<path d="M329.4,268v38h18h18v-38v-38h-18h-18V268z"/>
		<path d="M329.4,458v52h18h18v-52v-52h-18h-18V458z"/>
		<path d="M580.2,268v38h18h18v-38v-38h-18h-18V268z"/>
		<path d="M580.2,458v52h18h18v-52v-52h-18h-18V458z"/>
		<g>
			<path d="M374.1,3.9c-1,0.4-25.4,19.6-54.2,42.6l-52.4,42v108.7L267.4,306h17h17v-46.8c0-44.8,0.1-46.8,2-50
				c1.1-1.8,3.4-4.1,5.2-5.2c3.1-1.9,5.1-2,38.9-2c35.4,0,35.6,0,39,2.3c7,4.6,6.9,3.9,6.9,55.4V306h49h49V199.4
				c0-93.7-0.2-107-1.5-109.8c-1-2-7.1-7.8-16-15l-14.5-11.7V38.4c0-26.4-0.2-27.4-5.5-32.4c-2.2-2.1-3.7-2.5-8.5-2.5
				c-4.8,0-6.3,0.4-8.5,2.5c-4.5,4.2-5,6-5.5,20.4l-0.5,13.8l-22-17.7c-12-9.7-23-18.1-24.3-18.6C381.9,2.8,376.7,2.8,374.1,3.9z
				 M389.9,83.5c31.2,8.1,41.8,47.3,19.1,70.1c-24.1,24-65.1,10.7-70.9-23C333.1,101.1,360.7,76,389.9,83.5z M450.2,204
				c6.6,4,7.2,6.3,7.2,27.5c0,16.1-0.3,19.5-1.8,22.4c-5.1,10.1-18.3,10.6-24.2,0.9c-1.8-3-2-5.1-2-22.8s0.2-19.8,2-22.8
				c2.6-4.2,7.6-7.2,12-7.2C445.3,202,448.4,202.9,450.2,204z"/>
			<g>
				<path d="M491.4,482v-74v-74h-112h-112v88v88h17h17v-60.8c0-58.8,0.1-60.8,2-64c1.1-1.8,3.4-4.1,5.2-5.2c3.1-1.9,5.1-2,38.9-2
					c35.4,0,35.6,0,39,2.3c7.1,4.7,6.9,2.3,6.9,69.4V510h51.3c27,0,0,0,46.7,0.2L491.4,482z M455.6,429.9
					c-5.1,10.1-18.3,10.6-24.2,0.9c-1.8-3-2-5.1-2-22.8s0.2-19.8,2-22.8c4.2-6.8,12.4-9.1,18.8-5.2c6.6,4,7.2,6.3,7.2,27.5
					C457.4,423.6,457.1,427,455.6,429.9z"/>
				<path d="M491.5,509.6C491.5,509.6,491.5,509.6,491.5,509.6L491.5,509.6L491.5,509.6z"/>
			</g>
		</g>
	</g>
</g>
</svg>
