<?xml version="1.0" standalone="no"?>
<!DOCTYPE svg PUBLIC "-//W3C//DTD SVG 20010904//EN"
 "http://www.w3.org/TR/2001/REC-SVG-20010904/DTD/svg10.dtd">
<svg version="1.0" xmlns="http://www.w3.org/2000/svg"
 width="512.000000pt" height="512.000000pt" viewBox="0 0 512.000000 512.000000"
 preserveAspectRatio="xMidYMid meet">

<g transform="translate(0.000000,512.000000) scale(0.100000,-0.100000)"
fill="#000000" stroke="none">
<path d="M1930 4905 l0 -215 215 0 215 0 -2 -222 -3 -222 -120 -17 c-165 -24
-248 -44 -400 -96 -143 -50 -323 -136 -431 -206 l-69 -45 -160 159 -160 159
-150 -150 -150 -150 148 -148 148 -148 -61 -69 c-285 -329 -462 -735 -511
-1178 -17 -151 -6 -449 21 -593 101 -543 378 -998 805 -1325 385 -295 885
-455 1365 -435 686 28 1295 358 1681 911 342 489 463 1128 324 1710 -79 331
-246 660 -460 904 l-57 64 151 151 c83 83 151 156 151 161 0 6 -65 75 -145
155 l-145 145 -163 -161 -162 -162 -74 49 c-236 153 -554 266 -856 303 l-90
11 -3 223 -2 222 215 0 215 0 0 215 0 215 -640 0 -640 0 0 -215z m893 -1086
c747 -112 1332 -704 1438 -1454 18 -125 15 -378 -5 -500 -81 -491 -360 -912
-779 -1178 -391 -249 -898 -324 -1352 -202 -546 148 -985 560 -1168 1095 -104
304 -119 656 -42 960 142 563 551 1012 1095 1203 132 46 264 74 435 91 63 6
298 -3 378 -15z"/>
<path d="M2455 3619 c-634 -47 -1175 -502 -1330 -1119 -71 -280 -57 -604 36
-860 195 -534 637 -898 1195 -985 143 -23 375 -16 518 15 427 92 783 354 1002
737 77 136 142 323 170 493 18 109 18 351 0 460 -39 238 -127 452 -263 643
-74 104 -236 266 -340 340 -288 205 -635 302 -988 276z m941 -676 c-13 -21
-161 -252 -330 -513 -325 -503 -339 -520 -423 -536 -61 -11 -147 2 -190 29
-120 76 -159 213 -96 336 l28 55 515 333 c283 183 516 333 518 333 1 0 -8 -17
-22 -37z"/>
</g>
</svg>
